<svg xmlns="http://www.w3.org/2000/svg" width="28" height="16" viewBox="0 0 28 16"><g><g><path fill="#000000" d="M24.099 10.174c.928.916 1.909 1.777 2.742 2.785.368.448.716.91.983 1.43.377.74.035 1.552-.621 1.596l-4.08-.001c-1.051.088-1.89-.34-2.596-1.066-.565-.581-1.088-1.2-1.631-1.8a3.88 3.88 0 0 0-.734-.659c-.557-.365-1.04-.253-1.359.333-.324.597-.397 1.257-.43 1.922-.043.97-.333 1.225-1.298 1.27-2.062.098-4.02-.217-5.837-1.268-1.603-.926-2.846-2.233-3.928-3.713C3.204 8.121 1.591 4.955.141 1.7-.185.966.054.572.855.558 2.185.532 3.516.534 4.85.557c.54.008.899.32 1.108.837.72 1.787 1.6 3.488 2.706 5.065.295.42.595.839 1.023 1.134.473.328.833.22 1.055-.313.142-.337.203-.7.235-1.062.106-1.243.12-2.484-.065-3.723-.114-.774-.545-1.274-1.31-1.42C9.212 1 9.272.853 9.46.629c.328-.388.636-.63 1.25-.63h4.61c.727.146.888.475.987 1.212l.004 5.171c-.008.286.141 1.133.65 1.322.408.134.677-.195.921-.456 1.104-1.183 1.892-2.58 2.596-4.029.312-.636.58-1.297.84-1.958.194-.49.496-.73 1.043-.72l4.437.004c.132 0 .265.002.392.024.748.128.953.453.722 1.19-.364 1.157-1.072 2.121-1.764 3.09-.74 1.033-1.532 2.032-2.265 3.072-.675.95-.621 1.428.217 2.253z"/></g></g></svg>