<svg xmlns="http://www.w3.org/2000/svg" width="26" height="22" viewBox="0 0 26 22"><g><g><path fill="#841eb6" d="M.424 9.265L25.066.047c.523-.196 1.062.248.948.78l-4.422 20.627c-.104.487-.693.708-1.109.415l-6.037-4.25a1.023 1.023 0 0 0-1.217.033l-3.347 2.646c-.388.308-.974.136-1.122-.328l-2.324-7.248L.43 10.55a.68.68 0 0 1-.007-1.284zm7.445 3.59l1.269 4.322c.09.307.548.275.592-.041l.33-2.37c.062-.447.282-.858.622-1.166l9.685-8.73c.18-.162-.036-.439-.247-.313L8.385 11.565a1.13 1.13 0 0 0-.516 1.29z"/></g></g></svg>