<svg xmlns="http://www.w3.org/2000/svg" width="26" height="26" viewBox="0 0 26 26"><g><g><path fill="#000000" d="M26 12.894c-.004 9.806-10.57 15.95-19.131 11.323l-6.86 1.79 1.836-6.677a12.829 12.829 0 0 1-1.727-6.442C.123 1.525 13.904-4.317 22.23 3.738l-.016.042A12.783 12.783 0 0 1 26 12.894zm-5.314-7.61a10.68 10.68 0 0 0-7.604-3.153c-8.46 0-13.591 9.297-9.125 16.411l.259.406-1.089 3.95 4.061-1.056.39.232c7.177 4.221 16.252-.944 16.258-9.216 0-2.86-1.12-5.56-3.15-7.574zm-3.479 13.683c-.558.08-1.263.114-2.036-.131-2.863-.984-4.43-1.693-7.369-5.542-1.495-2.109-1.936-4.092-.188-6.014.402-.418.858-.427 1.482-.373.2 0 .467-.08.727.553.271.635.918 2.228.999 2.39.08.162.135.34.027.568-.604 1.144-1.268 1.222-.95 1.77.19.326.835 1.382 1.797 2.244 1.234 1.105 2.277 1.447 2.602 1.609.322.146.51.13.7-.081.187-.215.809-.94 1.022-1.26.308-.461.567-.384 2.948.803.325.147.537.228.617.375.082.146.082.78-.195 1.543-.27.764-1.561 1.447-2.183 1.546z"/></g></g></svg>