<svg xmlns="http://www.w3.org/2000/svg" width="26" height="26" viewBox="0 0 26 26"><g><g><path fill="#eaedf3" d="M17.875 26h-9.75A8.126 8.126 0 0 1 0 17.875v-9.75A8.126 8.126 0 0 1 8.125 0h9.75A8.126 8.126 0 0 1 26 8.125v9.75A8.126 8.126 0 0 1 17.875 26zm5.687-17.875a5.694 5.694 0 0 0-5.687-5.688h-9.75a5.694 5.694 0 0 0-5.688 5.688v9.75a5.694 5.694 0 0 0 5.688 5.687h9.75a5.694 5.694 0 0 0 5.687-5.687zm-3.575-1.246a.866.866 0 1 1 0-1.733.866.866 0 0 1 0 1.733zM13 19.499a6.5 6.5 0 1 1 0-13 6.5 6.5 0 0 1 0 13zm0-10.562A4.067 4.067 0 0 0 8.937 13 4.068 4.068 0 0 0 13 17.062 4.068 4.068 0 0 0 17.062 13 4.067 4.067 0 0 0 13 8.937z"/></g></g></svg>